<?xml version="1.0" encoding="UTF-8"?>
<svg id="Layer_2" data-name="Layer 2" xmlns="http://www.w3.org/2000/svg" viewBox="0 0 113.04 56.05">
  <g id="Layer_1-2" data-name="Layer 1">
    <g>
      <path d="m64.18,7.69l-10.27,25.29c-.86,2.1-2.43,3.91-4.71,5.42-2.28,1.51-4.59,2.27-6.93,2.27h-17.12l-4.71,11.53c-.4,1.08-1.17,1.99-2.31,2.73-1.14.74-2.31,1.11-3.51,1.11H3c-2,0-3-.85-3-2.54,0-.41.09-.85.26-1.31L18.31,7.69c.86-2.1,2.42-3.91,4.71-5.42,2.28-1.51,4.59-2.27,6.93-2.27h28.75c1.83,0,3.28.47,4.36,1.42,1.08.95,1.63,2.17,1.63,3.65,0,.82-.17,1.69-.51,2.61Zm-19.6-1.54h-5.48l-11.47,28.37h5.48l11.47-28.37Z" fill="#50c3f4"/>
      <path d="m112.53,7.69l-16.52,40.67c-.86,2.1-2.43,3.91-4.71,5.42-2.28,1.51-4.59,2.27-6.93,2.27h-28.75c-1.83,0-3.28-.47-4.36-1.42-1.08-.95-1.63-2.17-1.63-3.65,0-.82.17-1.69.51-2.61l1.28-3c.4-1.08,1.17-1.99,2.31-2.73,1.14-.74,2.31-1.11,3.51-1.11h7.36c1.83,0,3.28.47,4.36,1.42,1.08.95,1.63,2.16,1.63,3.65,0,.82-.2,1.69-.6,2.61l-.26.69h5.48l3.76-9.23h-17.11c-1.83,0-3.28-.47-4.36-1.42-1.08-.95-1.63-2.16-1.63-3.65,0-.82.17-1.69.51-2.61l10.27-25.29c.86-2.1,2.42-3.91,4.71-5.42,2.28-1.51,4.59-2.27,6.93-2.27h28.75c1.83,0,3.28.47,4.36,1.42,1.08.95,1.63,2.17,1.63,3.65,0,.82-.17,1.69-.51,2.61Zm-19.6-1.54h-5.48l-11.47,28.37h5.48l11.47-28.37Z" fill="#50c3f4"/>
    </g>
  </g>
</svg>